PathFileType	4	(X/Y/Z)	ROM_Ellenbogenflex_R 1.trc
DataRate	CameraRate	NumFrames	NumMarkers	Units	OrigDataRate	OrigDataStartFrame	OrigNumFrames
150	150	10	17	mm	150	256	2047
Frame#	Time	ST1			ST2			ST3			RACR1			RACR2			RACR3			RUA1			RUA2			RUA3			RUA4			RLA1			RLA2			RLA3			RLA4			RH1			RH2			RH3		
		X1	Y1	Z1	X2	Y2	Z2	X3	Y3	Z3	X4	Y4	Z4	X5	Y5	Z5	X6	Y6	Z6	X7	Y7	Z7	X8	Y8	Z8	X9	Y9	Z9	X10	Y10	Z10	X11	Y11	Z11	X12	Y12	Z12	X13	Y13	Z13	X14	Y14	Z14	X15	Y15	Z15	X16	Y16	Z16	X17	Y17	Z17
	
256	1.700000	318.514099	1172.005249	-17.252888	340.554016	1119.779053	16.421808	319.653198	1171.912231	38.546391	255.364853	1266.243164	247.486801	214.112686	1165.026489	265.953857	179.998398	1225.848145	175.660873	274.153625	1083.974609	231.867188	276.225616	1022.435242	235.519745	220.322342	1023.495789	253.966537	217.685989	1085.172363	247.445129	283.247528	708.511780	290.216797	368.567780	653.689270	297.064606	315.890900	687.625732	411.046112	242.507828	713.772583	339.957489	285.606537	604.563599	317.148346	294.878906	574.242554	357.343628	269.813904	623.669312	367.018036
257	1.706667	318.530609	1172.020142	-17.259853	340.590088	1119.792603	16.402710	319.701477	1171.914185	38.548061	255.517136	1266.288696	247.461395	214.220901	1165.084595	265.986877	180.216660	1226.013184	175.528976	274.157257	1084.006836	231.978683	276.137604	1022.487793	235.610397	220.312424	1023.707520	254.074799	217.680923	1085.301758	247.539230	282.483551	708.523743	290.674683	367.564789	653.458740	297.235779	315.384247	687.720703	411.376678	241.837036	714.035034	340.467957	284.603455	604.687622	317.797058	293.698212	574.307129	357.917450	268.948059	624.075989	367.672607
258	1.713333	318.546844	1172.035645	-17.265106	340.624939	1119.809692	16.386089	319.747772	1171.921509	38.553139	255.605392	1266.323242	247.468689	214.318100	1165.110596	266.013458	180.383835	1226.091797	175.446640	274.173737	1084.034790	232.079971	276.058929	1022.535645	235.713623	220.283646	1023.904907	254.192123	217.686462	1085.435059	247.637787	281.731781	708.558777	291.139954	366.594238	653.259460	297.488098	314.819763	687.832153	411.748718	241.161224	714.296936	340.967377	283.594696	604.805786	318.436340	292.526123	574.372009	358.516998	268.087433	624.440125	368.315918
259	1.720000	318.564240	1172.049805	-17.266367	340.657715	1119.828369	16.372976	319.790497	1171.933838	38.561451	255.646683	1266.349121	247.503174	214.415833	1165.106934	266.037445	180.508057	1226.103516	175.408600	274.202301	1084.061890	232.171555	275.983765	1022.586609	235.830826	220.230606	1024.090454	254.321457	217.701935	1085.575073	247.736633	280.973145	708.638611	291.607147	365.660431	653.098938	297.842590	314.183624	687.961060	412.166962	240.473526	714.559326	341.451416	282.579529	604.919250	319.063171	291.365204	574.441956	359.139313	267.223511	624.758972	368.946686
260	1.726667	318.583038	1172.060547	-17.261787	340.687622	1119.847290	16.364185	319.828796	1171.949463	38.572659	255.663544	1266.370972	247.554565	214.521866	1165.082520	266.063904	180.601593	1226.074219	175.405151	274.238251	1084.095093	232.258102	275.904602	1022.648926	235.965378	220.153961	1024.270142	254.459732	217.721695	1085.722168	247.830536	280.206757	708.760010	292.074677	364.765106	652.977600	298.301514	313.476654	688.105469	412.629486	239.771683	714.822266	341.919739	281.568390	605.031616	319.678497	290.217285	574.522400	359.774780	266.349335	625.044800	369.562653
261	1.733333	318.602234	1172.067017	-17.250372	340.714355	1119.864990	16.361097	319.863373	1171.966187	38.586876	255.678589	1266.394897	247.611450	214.639496	1165.049927	266.097595	180.677216	1226.028809	175.427338	274.274658	1084.141968	232.346756	275.813812	1022.728455	236.122620	220.056503	1024.448975	254.600571	217.736374	1085.875366	247.914413	279.449921	708.897095	292.545166	363.907013	652.892029	298.847534	312.715454	688.261841	413.127380	239.058640	715.082581	342.376617	280.571442	605.145813	320.282196	289.083679	574.615479	360.408508	265.464020	625.307434	370.160065
262	1.740000	318.620117	1172.070312	-17.232843	340.738312	1119.879883	16.365627	319.895844	1171.981934	38.604710	255.709518	1266.426514	247.663620	214.768753	1165.022949	266.141815	180.745575	1225.985962	175.467896	274.303589	1084.207520	232.445114	275.706299	1022.827393	236.306061	219.941513	1024.630859	254.737366	217.735367	1086.033081	247.984039	278.725159	709.019165	293.022308	363.081085	652.836975	299.446777	311.928680	688.426025	413.645508	238.342514	715.333801	342.827209	279.593536	605.262878	320.871429	287.965454	574.718018	361.023468	264.574524	625.550903	370.736511
263	1.746667	318.635284	1172.072632	-17.211145	340.759979	1119.890625	16.378948	319.927734	1171.995239	38.626930	255.765533	1266.470337	247.703125	214.907715	1165.013916	266.197052	180.813568	1225.957153	175.520370	274.317505	1084.293457	232.559494	275.582062	1022.943237	236.513306	219.811905	1024.818115	254.865875	217.709991	1086.195435	248.037018	278.039246	709.116272	293.504669	362.276917	652.805664	300.055878	311.150116	688.594055	414.163910	237.633835	715.571045	343.275177	278.633301	605.381042	321.440002	286.864990	574.824280	361.604309	263.694702	625.781372	371.294312
264	1.753333	318.647583	1172.076050	-17.185890	340.779541	1119.896606	16.400492	319.959778	1172.004883	38.654083	255.846466	1266.528198	247.725372	215.052551	1165.031494	266.260986	180.884140	1225.946533	175.577301	274.311218	1084.398193	232.692444	275.446198	1023.069702	236.735687	219.669373	1025.012329	254.985855	217.656113	1086.364380	248.074783	277.372650	709.209351	293.983215	361.480103	652.788696	300.628418	310.412262	688.762207	414.659302	236.942245	715.795715	343.722961	277.683899	605.495605	321.978516	285.787170	574.929504	362.141266	262.840729	626.008423	371.839081
265	1.760000	318.657990	1172.080933	-17.155582	340.797028	1119.898193	16.428104	319.992615	1172.010742	38.686260	255.943344	1266.598999	247.730026	215.197403	1165.077515	266.329102	180.957581	1225.952271	175.629593	274.283600	1084.517700	232.839828	275.307007	1023.198608	236.962250	219.513733	1025.213013	255.101227	217.575317	1086.542725	248.103333	276.692261	709.332153	294.444031	360.676453	652.774658	301.119965	309.742432	688.925476	415.108124	236.275970	716.015442	344.170593	276.733521	605.603821	322.477905	284.737396	575.032532	362.631134	262.027039	626.239502	372.374695
